<svg width="27" height="27" xmlns="http://www.w3.org/2000/svg" xmlns:xlink="http://www.w3.org/1999/xlink" xmlns:svgjs="http://svgjs.com/svgjs" viewBox="0 0 26.999 27" fill="#0a99ab"><svg xmlns="http://www.w3.org/2000/svg" width="27" height="27" viewBox="0 0 26.249 26.25"><path paint-order="stroke fill markers" fill-rule="evenodd" d="M20.454 9.726c1.257 2.949.54 6.528-1.859 8.925-1.594 1.595-3.685 2.474-5.887 2.474a7.783 7.783 0 0 1-2.986-.592c-.082 1.856-.522 5.46-2.688 5.705a1.916 1.916 0 0 1-.22.012c-.585 0-1.168-.26-1.64-.733-.865-.865-1.027-2.04-1.145-2.898a24.522 24.522 0 0 0-.05-.348 16.103 16.103 0 0 0-.35-.05c-.857-.119-2.032-.28-2.896-1.145-.532-.532-.795-1.21-.72-1.861.242-2.165 3.846-2.606 5.703-2.687-1.223-2.938-.495-6.496 1.882-8.874 1.596-1.595 3.686-2.473 5.886-2.473 1.053 0 2.09.21 3.04.614.105-2.776.853-5.577 2.691-5.782.642-.076 1.33.186 1.862.719.864.864 1.026 2.04 1.143 2.897.018.122.033.24.05.35.11.018.227.033.347.05.86.117 2.035.278 2.9 1.144.532.53.794 1.21.72 1.862-.208 1.838-3.008 2.586-5.783 2.69zM24.9 5.792c-.658-.658-1.584-.784-2.401-.896a9.534 9.534 0 0 1-.697-.113.438.438 0 0 1-.334-.334 9.37 9.37 0 0 1-.114-.7c-.112-.817-.24-1.742-.896-2.399-.343-.342-.755-.512-1.144-.468-1.323.148-1.927 3.009-1.93 5.604a.437.437 0 0 1-.645.384 6.839 6.839 0 0 0-3.255-.814c-1.966 0-3.837.787-5.267 2.217-2.28 2.28-2.869 5.763-1.432 8.47a.439.439 0 0 1-.384.642c-2.556.015-5.373.624-5.52 1.928-.043.385.128.802.47 1.145.657.656 1.582.783 2.398.896.256.035.493.068.7.113a.438.438 0 0 1 .334.334c.045.207.078.444.113.7.113.815.24 1.74.897 2.398.342.342.755.512 1.143.469 1.304-.147 1.913-2.965 1.928-5.52a.439.439 0 0 1 .642-.383 6.853 6.853 0 0 0 3.202.784c1.968 0 3.84-.786 5.269-2.216 2.3-2.301 2.877-5.806 1.402-8.522a.439.439 0 0 1 .385-.646c2.594-.003 5.454-.606 5.603-1.928.045-.392-.121-.799-.467-1.145zm-9.557 12.646a.438.438 0 0 1-.343-.804 4.884 4.884 0 0 0 2.822-3.35.437.437 0 1 1 .85.203 5.76 5.76 0 0 1-3.329 3.95zm-2.81-10.126a4.817 4.817 0 0 0-3.278 1.85.437.437 0 1 1-.691-.536 5.685 5.685 0 0 1 3.868-2.184.437.437 0 1 1 .101.87zm-4.296 4.663a.437.437 0 0 1-.437.422h-.015a.438.438 0 0 1-.422-.452c.015-.448.083-.894.202-1.325a.437.437 0 1 1 .843.233c-.1.364-.158.742-.171 1.122z"/></svg></svg>