<svg width="27" height="28" xmlns="http://www.w3.org/2000/svg" xmlns:xlink="http://www.w3.org/1999/xlink" xmlns:svgjs="http://svgjs.com/svgjs" viewBox="0 0.568 27 26.864" fill="#0a99ab"><svg xmlns="http://www.w3.org/2000/svg" width="27" height="28" viewBox="0 1 26.248 26.115"><path paint-order="stroke fill markers" fill-rule="evenodd" d="M24.917 12.68l.395.395a1.314 1.314 0 0 1 0 1.856c-.496.495-1.36.495-1.856 0l-.396-.396a7.476 7.476 0 0 1-4.252 1.334 7.365 7.365 0 0 1-4.929-1.883L.745 26.988a.434.434 0 0 1-.618-.003.437.437 0 0 1 .003-.619L13.26 13.37a7.441 7.441 0 0 1-.546-9.18l-.395-.395a1.314 1.314 0 0 1 0-1.856c.495-.496 1.36-.496 1.856 0l.396.396A7.476 7.476 0 0 1 18.823 1c1.984 0 3.849.772 5.251 2.175a7.443 7.443 0 0 1 .843 9.504zm-10.742.395a6.507 6.507 0 0 0 4.633 1.919 6.596 6.596 0 0 0 3.621-1.09l-9.082-9.082a6.565 6.565 0 0 0 .828 8.253zm9.28-9.281a6.508 6.508 0 0 0-4.632-1.92c-1.454 0-2.884.49-4.027 1.38a.438.438 0 0 1-.578-.036l-.661-.662a.435.435 0 0 0-.619 0 .438.438 0 0 0 0 .62l.66.66 9.858 9.857.618.62a.448.448 0 0 0 .62-.001.438.438 0 0 0 0-.619l-.662-.661a.437.437 0 0 1-.036-.578 6.566 6.566 0 0 0-.54-8.66zm-3.006.088a.448.448 0 0 1-.135-.022 4.814 4.814 0 0 0-1.849-.226.442.442 0 0 1-.468-.404.438.438 0 0 1 .405-.468 5.682 5.682 0 0 1 2.183.266.438.438 0 0 1-.136.854zm-3.658.185a4.851 4.851 0 0 0-.46.244.44.44 0 0 1-.6-.148.437.437 0 0 1 .148-.6c.176-.107.358-.204.544-.29a.438.438 0 0 1 .368.794zm-.157 8.658a4.834 4.834 0 0 0 3.185.417.438.438 0 0 1 .181.855 5.698 5.698 0 0 1-3.762-.492.437.437 0 1 1 .396-.78z"/></svg></svg>