<svg width="27" height="27" xmlns="http://www.w3.org/2000/svg" xmlns:xlink="http://www.w3.org/1999/xlink" xmlns:svgjs="http://svgjs.com/svgjs" viewBox="0 0.029 27 26.943" fill="#0a99ab"><svg xmlns="http://www.w3.org/2000/svg" width="27" height="27" viewBox="0 0 26.25 26.194"><path paint-order="stroke fill markers" fill-rule="evenodd" d="M25 9.911l-4.027 4.037c-.017.019-.03.04-.048.058l-1.238 1.238c-.006.007-.015.009-.022.015l-3.404 3.412a4.24 4.24 0 0 1-3.017 1.25c-1.14 0-2.21-.444-3.016-1.25l-.106-.106-7.135 7.117c-.33.33-.77.512-1.237.512-.467 0-.907-.182-1.237-.513-.331-.33-.513-.77-.513-1.237 0-.467.182-.907.513-1.237l7.135-7.116-.05-.05a4.238 4.238 0 0 1-1.25-3.016c0-1.139.444-2.21 1.25-3.016l8.74-8.76A4.24 4.24 0 0 1 19.355 0c1.139 0 2.21.445 3.016 1.25L25 3.88a4.236 4.236 0 0 1 1.249 3.016c0 1.14-.444 2.21-1.25 3.016zM1.13 23.826a.869.869 0 0 0-.255.618c0 .234.09.454.256.619.331.33.907.33 1.238 0l7.135-7.116-1.238-1.238-7.135 7.117zm6.094-10.801c0 .906.353 1.757.993 2.398l2.63 2.63c.64.64 1.492.993 2.397.993.906 0 1.757-.353 2.398-.994l4.685-4.696a.862.862 0 0 0-.021-1.206.876.876 0 0 0-1.237 0l-.619.619c-.661.661-1.814.661-2.475 0a1.751 1.751 0 0 1 0-2.475l1.547-1.547a1.315 1.315 0 0 0 0-1.856 1.314 1.314 0 0 0-1.856 0l-3.403 3.403a1.753 1.753 0 0 1-2.475 0 1.73 1.73 0 0 1-.447-.792l-1.124 1.126a3.367 3.367 0 0 0-.993 2.397zm17.158-8.528l-2.63-2.629a3.368 3.368 0 0 0-2.397-.993c-.906 0-1.757.353-2.398.993l-5.919 5.933c-.005.006-.007.013-.012.018l-.62.619a.877.877 0 0 0 0 1.238c.342.34.897.34 1.238 0l3.403-3.404a2.191 2.191 0 0 1 3.094 0 2.19 2.19 0 0 1 0 3.094l-1.547 1.547a.876.876 0 0 0 0 1.237c.33.33.907.33 1.237 0l.619-.619a1.753 1.753 0 0 1 2.475 0c.22.22.366.49.445.78l3.011-3.018c.641-.64.994-1.492.994-2.398 0-.906-.353-1.757-.993-2.398z"/></svg></svg>