<svg width="27" height="27" xmlns="http://www.w3.org/2000/svg" xmlns:xlink="http://www.w3.org/1999/xlink" xmlns:svgjs="http://svgjs.com/svgjs" fill="#0a99ab"><svg xmlns="http://www.w3.org/2000/svg" width="27" height="27" viewBox="0 0 26.25 26.25"><path paint-order="stroke fill markers" fill-rule="evenodd" d="M24.965 11.424a2.482 2.482 0 0 1-.734 1.499L12.923 24.232c-.42.42-.91.66-1.5.733L1.178 26.246a.435.435 0 0 1-.364-.125l-.686-.685a.44.44 0 0 1-.125-.364l1.283-10.244a2.48 2.48 0 0 1 .733-1.5L13.33 2.02c.419-.42.91-.66 1.5-.733L25.071.004a.433.433 0 0 1 .363.124l.686.686c.096.096.142.23.126.364l-1.282 10.246zM24.968.899L14.937 2.155a1.688 1.688 0 0 0-.486.135.437.437 0 0 1-.406.275l-.01-.003c-.03.026-.06.047-.088.076L2.637 13.947c-.032.033-.057.068-.087.102a.428.428 0 0 1-.124.3.452.452 0 0 1-.13.087c-.07.154-.119.317-.142.5L.898 24.969l.384.384 10.033-1.255a1.7 1.7 0 0 0 .452-.123c.02-.066.05-.13.102-.182a.43.43 0 0 1 .365-.12c.023-.02.048-.037.07-.06l11.309-11.308c.025-.025.044-.053.067-.079a.428.428 0 0 1 .12-.349c.05-.049.109-.08.171-.101.06-.142.105-.293.126-.46l1.255-10.033L24.968.9zM23.212 11.73a.435.435 0 0 1-.31-.13c-.17-.17-.185-.462-.013-.633.171-.17.433-.184.604-.012l.03.03a.438.438 0 0 1-.31.745zm-.917-.917a.437.437 0 0 1-.31-.129c-.17-.171-.184-.463-.013-.633.171-.171.433-.185.604-.013l.03.03a.438.438 0 0 1-.311.745zm-.917-.917a.434.434 0 0 1-.309-.128c-.17-.17-.185-.462-.015-.633.17-.171.433-.186.605-.015l.029.03a.437.437 0 0 1-.31.746zm-.916-.916a.434.434 0 0 1-.31-.128c-.17-.17-.185-.463-.014-.634.17-.17.433-.186.604-.014l.03.029a.437.437 0 0 1-.31.747zm-.917-.917a.437.437 0 0 1-.309-.128c-.17-.171-.186-.462-.015-.634.171-.17.433-.185.604-.014l.03.03a.438.438 0 0 1-.31.746zm-.916-.916a.436.436 0 0 1-.309-.128c-.171-.17-.187-.461-.017-.633.17-.171.433-.188.604-.017l.03.03a.438.438 0 0 1-.308.748zm-.917-.917a.435.435 0 0 1-.308-.127c-.172-.17-.187-.462-.017-.634.17-.17.432-.187.604-.016l.03.03a.437.437 0 0 1-.31.747zm-.917-.917a.434.434 0 0 1-.308-.127c-.172-.17-.187-.462-.017-.633.17-.171.432-.188.604-.017l.03.03a.437.437 0 0 1-.309.747zm-.916-.916a.437.437 0 0 1-.309-.127c-.171-.171-.187-.462-.017-.634.17-.171.433-.188.604-.017l.03.03a.437.437 0 0 1-.308.748zm-.917-.917a.437.437 0 0 1-.31-.128c-.17-.171-.185-.463-.015-.634.172-.17.434-.185.605-.015l.029.03a.437.437 0 0 1-.31.747zM14.928 8.2a.437.437 0 0 1 0 .619c-.18.18-.522.782-.43 1.494.03.226.083.407.142.55l1.654-1.653a.437.437 0 1 1 .618.619l-1.66 1.66c.15.065.343.12.573.15.706.093 1.32-.256 1.493-.43a.438.438 0 0 1 .62.619c-.304.304-1.022.701-1.875.701-.026 0-.053-.005-.08-.005.302.449.478.858.54 1.254.123.788-.189 1.523-.98 2.315-.922.922-2.562 1.251-3.788 1.251-.508 0-1.752-.063-2.334-.645-1.023-1.022-.845-4.668.607-6.12.686-.687 1.318-1.006 1.989-1.006.506 0 1.018.182 1.595.574-.023-.831.326-1.576.697-1.947a.437.437 0 0 1 .619 0zm-2.911 2.248c-.424 0-.859.238-1.37.75-1.22 1.219-1.195 4.295-.607 4.883.193.193.798.388 1.715.388 1.32 0 2.565-.39 3.169-.995.585-.585.812-1.066.734-1.561-.082-.534-.515-1.178-1.356-2.025-.013-.01-.027-.02-.038-.032-.013-.013-.023-.026-.033-.039-.952-.945-1.637-1.37-2.214-1.37zM8.838 20.757a.451.451 0 0 1-.316.136.405.405 0 0 1-.288-.122l-.03-.029a.439.439 0 0 1 .619-.619c.17.17.186.463.015.634zm-1.233-.781a.403.403 0 0 1-.288-.121l-.03-.03a.437.437 0 1 1 .62-.619c.17.171.185.463.014.634a.449.449 0 0 1-.316.136zm-.917-.917a.4.4 0 0 1-.287-.12l-.03-.03a.437.437 0 1 1 .619-.62c.17.172.185.464.015.634a.448.448 0 0 1-.317.136zm-.916-.917a.4.4 0 0 1-.288-.12l-.03-.03a.437.437 0 1 1 .62-.619c.17.17.185.463.014.634a.449.449 0 0 1-.316.135zm-.917-.916a.403.403 0 0 1-.288-.121l-.03-.03a.437.437 0 1 1 .62-.618c.17.17.185.462.014.633a.451.451 0 0 1-.316.136zm-.916-.917a.404.404 0 0 1-.288-.12l-.03-.03a.438.438 0 0 1 .618-.62c.172.172.186.464.015.634a.449.449 0 0 1-.315.136zm-.917-.917a.403.403 0 0 1-.288-.12l-.03-.03a.437.437 0 1 1 .619-.619c.171.171.186.463.015.634a.449.449 0 0 1-.316.135zM9.74 21.04c.17.17.185.462.015.634a.45.45 0 0 1-.317.135.403.403 0 0 1-.288-.12l-.03-.03a.438.438 0 0 1 .62-.62zm.916.916c.171.172.186.463.015.634a.449.449 0 0 1-.316.136.402.402 0 0 1-.288-.121l-.03-.03a.438.438 0 0 1 .62-.619zm.917.918c.17.17.186.462.015.632a.449.449 0 0 1-.316.137.403.403 0 0 1-.288-.122l-.03-.029a.438.438 0 1 1 .62-.618z"/></svg></svg>