<svg width="27" height="28" xmlns="http://www.w3.org/2000/svg" xmlns:xlink="http://www.w3.org/1999/xlink" xmlns:svgjs="http://svgjs.com/svgjs" viewBox="0 0.539 27 26.923" fill="#0a99ab"><svg xmlns="http://www.w3.org/2000/svg" width="27" height="28" viewBox="0 1 26.247 26.172"><path paint-order="stroke fill markers" fill-rule="evenodd" d="M25.297 15.074a2.8 2.8 0 0 1-1.343.971c.025.038.057.076.08.114 1.254 2.08.637 4.966-1.536 7.18-1.397 1.426-3.143 2.243-4.79 2.243-.82 0-1.59-.196-2.287-.585-.087-.048-.174-.112-.261-.169-.164.515-.503 1-.977 1.36-.852.647-2.082.984-3.367.984-.896 0-1.82-.163-2.66-.5-1.298-.518-2.243-1.38-2.752-2.486-.35.268-.814.412-1.326.412-.245 0-.5-.032-.758-.097-1.077-.274-2.311-1.241-2.934-2.3-.343-.584-.461-1.135-.34-1.593.399-1.502 2.125-1.87 3.608-1.715.457.048 1.169.245 1.664.607.127-.298.283-.578.471-.84.482-.666 3.119-2.411 4.528-2.258a3.838 3.838 0 0 1-.013-.547c.07-1.176.494-1.972 1.679-3.157 1.178-1.18 1.724-1.33 2.774-1.415.192-.015.413-.005.645.017-.137-1.413 1.595-4.032 2.259-4.511.261-.19.542-.345.84-.472-.363-.495-.56-1.206-.607-1.663-.156-1.483.212-3.21 1.714-3.608.459-.12 1.01-.004 1.593.34 1.06.622 2.027 1.856 2.3 2.934.201.795.08 1.562-.315 2.078 1.146.517 2.04 1.487 2.573 2.821.796 1.993.602 4.456-.462 5.855zM5.04 22.984c-.14-.87-.154-1.647-.044-2.344a.432.432 0 0 1 .002-.211c.001-.005.005-.018-.023-.06-.174-.258-.847-.546-1.411-.606-.388-.04-2.34-.18-2.67 1.069-.059.22.031.558.247.925.508.863 1.537 1.678 2.396 1.895.65.165 1.138.01 1.36-.174.102-.084.157-.178.152-.258-.002-.042.008-.082.017-.122-.007-.038-.02-.074-.026-.114zm5.507-5.368c-.063-.224-.157-.295-.232-.331-.614-.297-3.343 1.234-3.815 1.888-.418.577-.934 1.586-.596 3.671.222 1.37 1.138 2.441 2.577 3.016 1.753.7 3.976.541 5.173-.369.437-.331.705-.818.73-1.273-1.677-1.555-3.248-4.411-3.837-6.6v-.002zm4.457-5.467c-.061 0-.12.002-.176.006-.86.07-1.209.145-2.226 1.162-1.148 1.147-1.373 1.75-1.424 2.59-.023.386.046.868.185 1.405.008.024.02.044.027.07.003.012 0 .024.003.036.655 2.399 2.677 5.827 4.454 6.814a3.781 3.781 0 0 0 1.862.475c1.413 0 2.932-.721 4.166-1.98 1.889-1.925 2.456-4.384 1.41-6.116-1.22-2.026-6.123-4.462-8.281-4.462zm7.218-6.101c.078-.002.173-.05.257-.152.184-.222.34-.712.175-1.362-.218-.858-1.033-1.887-1.895-2.394-.367-.216-.704-.306-.925-.248-1.25.331-1.11 2.282-1.069 2.67.06.565.348 1.238.605 1.41.042.03.055.026.06.024a.427.427 0 0 1 .212-.001c.697-.11 1.474-.097 2.344.044.037.006.072.018.109.025.04-.01.082-.02.127-.016zm2.725 3.496c-.341-.854-1.197-2.333-3.101-2.641-2.086-.34-3.094.177-3.671.595-.654.472-2.187 3.2-1.889 3.815.06.125.07.138.233.183.012.003.02.012.032.016 2.234.578 5.222 2.143 6.784 3.761.451-.029.937-.295 1.266-.729.876-1.152 1.025-3.301.346-5z"/></svg></svg>