<svg width="20" height="27" xmlns="http://www.w3.org/2000/svg" xmlns:xlink="http://www.w3.org/1999/xlink" xmlns:svgjs="http://svgjs.com/svgjs" viewBox="0 0.054 20 26.893" fill="#0a99ab"><svg xmlns="http://www.w3.org/2000/svg" width="20" height="27" viewBox="0 0 19.522 26.25"><path paint-order="stroke fill markers" fill-rule="evenodd" d="M17.446 12.111L3.993 25.564a2.323 2.323 0 0 1-1.654.686 2.323 2.323 0 0 1-1.655-.686 2.343 2.343 0 0 1 0-3.309l7.399-7.4 6.054-6.053a2.419 2.419 0 0 0 0-3.418 2.4 2.4 0 0 0-1.709-.706 2.4 2.4 0 0 0-1.708.706L7.693 8.411a2.324 2.324 0 0 1-1.654.686 2.326 2.326 0 0 1-1.656-.686 2.344 2.344 0 0 1 0-3.31l3.028-3.026A7.049 7.049 0 0 1 12.428 0c1.898 0 3.68.737 5.018 2.075a7.048 7.048 0 0 1 2.076 5.018c0 1.898-.737 3.68-2.076 5.018zm-.527-9.313a.429.429 0 0 1-.363-.111.437.437 0 0 1-.003.614l-.092.093a.439.439 0 0 1-.621-.617l.092-.093a.438.438 0 0 1 .614-.006.435.435 0 0 1-.12-.328A6.152 6.152 0 0 0 13.45.965a.432.432 0 0 1-.375.12.432.432 0 0 1-.29-.193c-.12-.007-.237-.017-.358-.017a6.22 6.22 0 0 0-2.342.455.432.432 0 0 1-.423.366.424.424 0 0 1-.214-.064 6.223 6.223 0 0 0-1.42 1.062l-1.04 1.04a.432.432 0 0 1-.406.406l-.009.01c.233.01.42.198.42.433v.132a.438.438 0 0 1-.875 0v-.11L5.002 5.72c-.57.57-.57 1.5 0 2.072.376.376.942.49 1.44.355a.432.432 0 0 1-.323-.414v-.132a.437.437 0 1 1 .875 0v.132a.428.428 0 0 1-.03.148c.037-.03.076-.055.11-.089l2.248-2.247a.427.427 0 0 1-.097-.262v-.132c0-.242.196-.437.438-.437a.43.43 0 0 1 .33.159l.108-.108a3.259 3.259 0 0 1 2.156-.946.426.426 0 0 1-.046-.263l.022-.13a.437.437 0 1 1 .863.147l-.023.13a.431.431 0 0 1-.061.156c.47.084.913.27 1.304.543a.424.424 0 0 1 .106-.197l.092-.094a.438.438 0 0 1 .62.617l-.092.093a.432.432 0 0 1-.15.098c.329.374.562.802.691 1.256a.43.43 0 0 1 .26.282.438.438 0 0 1 .305-.537l.127-.035a.436.436 0 0 1 .538.306.438.438 0 0 1 .306-.538l.126-.034a.437.437 0 0 1 .538.305.438.438 0 0 1 .306-.537l.126-.034a.434.434 0 0 1 .17-.013 6.16 6.16 0 0 0-1.466-2.543zm1.529 3.399l-.127.035a.438.438 0 0 1-.538-.305.437.437 0 0 1-.306.537l-.126.035a.437.437 0 0 1-.538-.306.438.438 0 0 1-.306.537l-.126.035a.438.438 0 0 1-.538-.306.436.436 0 0 1-.148.455 3.308 3.308 0 0 1-.416 1.796.445.445 0 0 1 .174-.036h.131a.437.437 0 1 1 0 .875h-.131a.438.438 0 0 1-.438-.438l.002-.01-.003.004.001.006c0 .22-.164.393-.375.425L12.476 11.7h.08a.438.438 0 1 1 0 .875h-.13a.434.434 0 0 1-.43-.396l-.02.02a.427.427 0 0 1-.363.363L9.45 14.727h.08a.438.438 0 1 1 0 .875H9.4a.434.434 0 0 1-.43-.395l-.02.02a.427.427 0 0 1-.362.363l-2.165 2.164h.081a.438.438 0 0 1 0 .875h-.131a.433.433 0 0 1-.43-.396l-.02.021a.428.428 0 0 1-.363.363l-2.164 2.165h.081a.437.437 0 1 1 0 .874h-.131a.433.433 0 0 1-.43-.395l-.02.02a.428.428 0 0 1-.363.363l-1.23 1.23a1.46 1.46 0 0 0-.427 1.028.43.43 0 0 1 .18.344c0 .083-.03.156-.07.223.071.173.177.336.318.477.553.553 1.519.553 2.072 0l.262-.263h-.132a.437.437 0 1 1 0-.874h.131c.242 0 .438.195.438.437 0-.242.195-.437.437-.437h.001l2.255-2.255a.43.43 0 0 1-.272.102h-.131a.437.437 0 1 1 0-.874h.13c.242 0 .438.195.438.437a.428.428 0 0 1-.102.272l.13-.132a.425.425 0 0 1-.028-.14c0-.242.196-.437.438-.437H7.5c.011 0 .02.005.031.006l2.261-2.26a.43.43 0 0 1-.271.101H9.39a.437.437 0 1 1 0-.875h.13c.242 0 .438.196.438.438a.428.428 0 0 1-.102.271l.13-.13a.431.431 0 0 1-.028-.141c0-.242.196-.438.438-.438h.131c.011 0 .02.006.031.007l2.262-2.261a.43.43 0 0 1-.272.102h-.132a.437.437 0 1 1 0-.875h.132c.241 0 .437.196.437.438a.428.428 0 0 1-.103.272l.132-.131a.423.423 0 0 1-.029-.14c0-.243.196-.439.438-.439h.13c.012 0 .021.006.032.007l2.26-2.26a.43.43 0 0 1-.27.102h-.132a.437.437 0 1 1 0-.875h.132c.241 0 .437.196.437.437a.431.431 0 0 1-.102.272l.13-.131a.425.425 0 0 1-.028-.14c0-.242.196-.438.438-.438h.13c.012 0 .021.005.032.006l.215-.215A6.184 6.184 0 0 0 18.19 9.44a.43.43 0 0 1-.156-.328c0-.23.178-.411.402-.43.218-.83.255-1.697.125-2.541-.035.022-.07.045-.113.057zm-1.989 2.477h.131a.438.438 0 0 1 0 .875h-.131a.438.438 0 0 1 0-.875zM13.432 11.7h.131a.438.438 0 0 1 0 .875h-.131a.437.437 0 1 1 0-.875zm-3.027 3.026h.131a.438.438 0 0 1 0 .875h-.131a.437.437 0 1 1 0-.875zm-3.027 3.027h.131a.438.438 0 0 1 0 .875h-.13a.437.437 0 1 1 0-.875zm-3.027 3.028h.131a.438.438 0 0 1 0 .874h-.13a.437.437 0 1 1 0-.874zm-2.859 3.027h.132a.438.438 0 0 1 0 .874h-.132a.437.437 0 0 1 0-.874zm1.138.874h-.131a.437.437 0 1 1 0-.874h.13a.438.438 0 1 1 0 .874zm2.859-3.027h-.132a.437.437 0 1 1 0-.874h.132a.437.437 0 1 1 0 .874zm3.027-3.027h-.132a.437.437 0 1 1 0-.875h.132a.438.438 0 0 1 0 .875zm3.027-3.027h-.132a.437.437 0 1 1 0-.875h.132a.438.438 0 0 1 0 .875zm3.027-3.026h-.132a.438.438 0 0 1 0-.875h.132a.438.438 0 0 1 0 .875zm3.026-3.027h-.13a.438.438 0 0 1 0-.875h.13a.438.438 0 1 1 0 .875zm-1.845-5.441a.434.434 0 0 1-.619.001.438.438 0 0 1-.001-.618l.093-.093a.437.437 0 1 1 .62.617l-.093.093zm-2.77-2.024a.438.438 0 0 1-.432-.511l.022-.13a.438.438 0 0 1 .862.148l-.022.129a.438.438 0 0 1-.43.364zm.283.498l-.022.13a.438.438 0 0 1-.862-.147l.022-.13a.437.437 0 1 1 .862.147zM10.1 2.133v.132a.438.438 0 0 1-.875 0v-.132a.437.437 0 1 1 .875 0zM6.994 5.59v.131a.438.438 0 0 1-.875 0V5.59a.437.437 0 1 1 .875 0zM6.12 6.727v-.131a.437.437 0 1 1 .875 0v.131a.438.438 0 0 1-.875 0zm3.106-2.45v-.131a.437.437 0 1 1 .875 0v.131a.438.438 0 0 1-.875 0zm0-1.006V3.14a.437.437 0 1 1 .875 0v.13a.437.437 0 1 1-.875 0z"/></svg></svg>