<svg width="160" height="53" xmlns="http://www.w3.org/2000/svg" xmlns:xlink="http://www.w3.org/1999/xlink" xmlns:svgjs="http://svgjs.com/svgjs" viewBox="165 24 160 53"><svg width="160" height="53" xmlns="http://www.w3.org/2000/svg" xmlns:xlink="http://www.w3.org/1999/xlink" xmlns:svgjs="http://svgjs.com/svgjs" viewBox="165 24 160 53" x="165" y="24"><svg width="54" height="53" xmlns="http://www.w3.org/2000/svg" xmlns:xlink="http://www.w3.org/1999/xlink" xmlns:svgjs="http://svgjs.com/svgjs" viewBox="0.415 0 53.171 53" fill="#0a99ab" x="271" y="24"><svg xmlns="http://www.w3.org/2000/svg" xmlns:xlink="http://www.w3.org/1999/xlink" width="54" height="53" viewBox="0.996 0 53.004 52.834"><path paint-order="stroke fill markers" fill-rule="evenodd" d="M27.5 52.834C12.888 52.834.997 40.983.997 26.416.996 11.849 12.885 0 27.501 0S54 11.85 54 26.418c0 14.567-11.887 26.416-26.5 26.416zm0-43.3c-9.34 0-16.946 7.574-16.946 16.884 0 9.309 7.598 16.88 16.94 16.88 9.342 0 16.937-7.57 16.937-16.88 0-9.311-7.606-16.882-16.938-16.882l.008-.002"/></svg></svg><svg width="39" height="10" xmlns="http://www.w3.org/2000/svg" xmlns:xlink="http://www.w3.org/1999/xlink" xmlns:svgjs="http://svgjs.com/svgjs" viewBox="0 0.364 39 9.272" fill="#0a99ab" x="226" y="45"><svg xmlns="http://www.w3.org/2000/svg" xmlns:xlink="http://www.w3.org/1999/xlink" width="39" height="10" viewBox="0.139 0.75 38.852 9.237"><path paint-order="stroke fill markers" fill-rule="evenodd" d="M2.057.75h35.014c2.56 0 2.56 9.237 0 9.237H2.057C-.5 9.987-.5.75 2.057.75z"/></svg></svg><svg width="40" height="14" xmlns="http://www.w3.org/2000/svg" xmlns:xlink="http://www.w3.org/1999/xlink" xmlns:svgjs="http://svgjs.com/svgjs" viewBox="0.422 0 39.157 14" fill="#0a99ab" x="225" y="25"><svg xmlns="http://www.w3.org/2000/svg" xmlns:xlink="http://www.w3.org/1999/xlink" width="40" height="14" viewBox="0.449 0.052 38.718 13.843"><path paint-order="stroke fill markers" fill-rule="evenodd" d="M1.84 4.73L36.535.063c2.535-.34 3.778 8.818 1.24 9.16L3.084 13.886c-2.536.342-3.78-8.817-1.24-9.16l-.003.005"/></svg></svg><svg width="40" height="15" xmlns="http://www.w3.org/2000/svg" xmlns:xlink="http://www.w3.org/1999/xlink" xmlns:svgjs="http://svgjs.com/svgjs" viewBox="0 0.347 40 14.305" fill="#0a99ab" x="225" y="61"><svg xmlns="http://www.w3.org/2000/svg" xmlns:xlink="http://www.w3.org/1999/xlink" width="40" height="15" viewBox="0.449 0.935 38.718 13.847"><path paint-order="stroke fill markers" fill-rule="evenodd" d="M1.84 10.103l34.695 4.67c2.535.34 3.778-8.816 1.24-9.161L3.084.944c-2.536-.34-3.78 8.82-1.24 9.161l-.003-.002"/></svg></svg><svg width="10" height="51" xmlns="http://www.w3.org/2000/svg" xmlns:xlink="http://www.w3.org/1999/xlink" xmlns:svgjs="http://svgjs.com/svgjs" viewBox="0.272 0 9.457 51" fill="#0a99ab" x="186" y="25"><svg xmlns="http://www.w3.org/2000/svg" xmlns:xlink="http://www.w3.org/1999/xlink" width="10" height="51" viewBox="0.558 0.813 9.237 49.814"><path paint-order="stroke fill markers" fill-rule="evenodd" d="M9.795 2.731v45.977c0 2.559-9.237 2.559-9.237 0V2.73c0-2.557 9.237-2.557 9.237 0z"/></svg></svg><svg width="17" height="50" xmlns="http://www.w3.org/2000/svg" xmlns:xlink="http://www.w3.org/1999/xlink" xmlns:svgjs="http://svgjs.com/svgjs" viewBox="0.741 0 15.519 50" fill="#0a99ab" x="201" y="25"><svg xmlns="http://www.w3.org/2000/svg" xmlns:xlink="http://www.w3.org/1999/xlink" width="17" height="50" viewBox="0.944 0.054 15.404 49.632"><path paint-order="stroke fill markers" fill-rule="evenodd" d="M10.114 1.445l6.225 45.607c.34 2.535-8.819 3.78-9.161 1.24L.953 2.687c-.342-2.535 8.819-3.78 9.16-1.242"/></svg></svg><svg width="16" height="50" xmlns="http://www.w3.org/2000/svg" xmlns:xlink="http://www.w3.org/1999/xlink" xmlns:svgjs="http://svgjs.com/svgjs" viewBox="0.241 0 15.518 50" fill="#0a99ab" x="165" y="25"><svg xmlns="http://www.w3.org/2000/svg" width="16" height="50" viewBox="0 0.059 15.403 49.629"><path paint-order="stroke fill markers" fill-rule="evenodd" d="M6.234 1.445L.01 47.052c-.34 2.537 8.817 3.781 9.16 1.246l6.224-45.605c.34-2.536-8.818-3.78-9.16-1.243l.001-.005"/></svg></svg></svg></svg>