<svg width="1448" height="46" xmlns="http://www.w3.org/2000/svg" xmlns:xlink="http://www.w3.org/1999/xlink" xmlns:svgjs="http://svgjs.com/svgjs" viewBox="0 0.436 1448.003 45.127" fill="#e6f5f7"><svg xmlns="http://www.w3.org/2000/svg" width="1448" height="46" viewBox="0 0.269 1447.27 45.105"><path paint-order="stroke fill markers" fill-rule="evenodd" d="M0 45.374l32.892-21.826 32.893 21.826 32.892-21.826 32.893 21.826 32.893-21.826 32.892 21.826 32.893-21.826 32.892 21.826 32.893-21.826 32.892 21.826 32.893-21.826 32.893 21.826 32.892-21.826 32.893 21.826 32.892-21.826 32.893 21.826 32.893-21.826 32.892 21.826 32.893-21.826 32.892 21.826 32.893-21.826 32.892 21.826 32.893-21.826 32.893 21.826 32.892-21.826 32.893 21.826 32.892-21.826 32.893 21.826 32.892-21.826 32.893 21.826 32.893-21.826 32.892 21.826 32.893-21.826 32.892 21.826 32.893-21.826 32.892 21.826 32.893-21.826 32.893 21.826 32.892-21.826 32.893 21.826 32.892-21.826 32.893 21.826 32.893-21.826 32.892 21.826V.269H0v45.105z"/></svg></svg>